#!OML:ASF G:\JayActor3\Patient Classification 1\Patient 1\Session 6\male.ASF
:FULLY-SPECIFIED
:DEGREES
2443
root 0.554243 16.8163 -5.07022 181.513 -72.4853 -170.021
lowerback -1.32074 -3.85131 -0.388901
upperback 1.52084 -5.17356 1.49074
thorax 2.47207 -2.60927 1.56072
lowerneck 7.07297 -17.4059 -8.79884
upperneck -11.9305 -23.0498 21.7032
head -0.984046 -12.4791 7.9044
rclavicle -8.60738e-014 1.86858e-014
rhumerus -113.97 60.9587 -146.709
rradius 92.0612
rwrist 23.8432
rhand -64.741 21.3868
rfingers 7.12502
rthumb -36.6526 -4.76668
lclavicle -8.60738e-014 1.86858e-014
lhumerus -89.0147 -38.1139 118.2
lradius 94.2489
lwrist -6.76081
lhand -45.3585 -32.0705
lfingers 7.12502
lthumb -18.1286 -2.89529
rfemur -26.521 7.57162 16.5448
rtibia 29.2382
rfoot -14.8627 -11.373
rtoes 3.95563
lfemur -9.70196 7.51343 -14.7668
ltibia 10.6369
lfoot -13.935 22.7846
ltoes 1.66647
2444
root 0.557927 16.8143 -5.06533 181.843 -71.9102 -170.389
lowerback -1.29609 -3.86837 -0.46159
upperback 1.53721 -5.19426 1.47144
thorax 2.48047 -2.62082 1.58137
lowerneck 6.9491 -17.4137 -8.77065
upperneck -11.8065 -23.0718 21.6126
head -0.940498 -12.4765 7.85265
rclavicle 5.13858e-014 -3.61788e-014
rhumerus -113.98 60.9786 -146.711
rradius 92.0787
rwrist 23.7671
rhand -64.7136 21.2903
rfingers 7.12502
rthumb -36.6266 -4.8698
lclavicle 5.13858e-014 -3.61788e-014
lhumerus -89.0316 -38.1971 118.278
lradius 94.2191
lwrist -6.81845
lhand -45.5052 -32.0452
lfingers 7.12502
lthumb -18.2697 -2.88314
rfemur -26.6442 7.77214 16.4819
rtibia 29.2734
rfoot -14.6635 -11.0831
rtoes 3.95001
lfemur -9.52796 7.58526 -14.8369
ltibia 10.5849
lfoot -14.18 23.1713
ltoes 1.98519
2445
root 0.561299 16.8123 -5.06034 182.145 -71.3231 -170.726
lowerback -1.27956 -3.88253 -0.52957
upperback 1.55476 -5.21129 1.4527
thorax 2.49419 -2.6305 1.59949
lowerneck 6.85582 -17.4163 -8.74684
upperneck -11.7203 -23.084 21.5458
head -0.910594 -12.4732 7.81476
rclavicle 3.4191e-014 -9.14409e-015
rhumerus -113.997 61 -146.719
rradius 92.1006
rwrist 23.6722
rhand -64.676 21.2741
rfingers 7.12502
rthumb -36.591 -4.89496
lclavicle 3.4191e-014 -9.14409e-015
lhumerus -89.0338 -38.2779 118.343
lradius 94.188
lwrist -6.87984
lhand -45.6378 -32.0261
lfingers 7.12502
lthumb -18.3973 -2.87607
rfemur -26.7699 7.97895 16.4219
rtibia 29.3054
rfoot -14.4615 -10.7865
rtoes 3.94941
lfemur -9.35782 7.63455 -14.9023
ltibia 10.5433
lfoot -14.464 23.5779
ltoes 2.35396
2446
root 0.564587 16.8102 -5.05541 182.409 -70.7235 -171.024
lowerback -1.2651 -3.89258 -0.590744
upperback 1.57129 -5.22306 1.43496
thorax 2.50734 -2.63745 1.61498
lowerneck 6.79402 -17.414 -8.72489
upperneck -11.6712 -23.0868 21.5034
head -0.894374 -12.4697 7.79058
rclavicle -4.95968e-014 4.77083e-015
rhumerus -114.016 61.0201 -146.728
rradius 92.1245
rwrist 23.5669
rhand -64.6302 21.3073
rfingers 7.12502
rthumb -36.5478 -4.87272
lclavicle -4.95968e-014 4.77083e-015
lhumerus -89.0262 -38.3564 118.396
lradius 94.1565
lwrist -6.93958
lhand -45.749 -32.0272
lfingers 7.12502
lthumb -18.5042 -2.88728
rfemur -26.8956 8.20565 16.3677
rtibia 29.3325
rfoot -14.2648 -10.4911
rtoes 3.97668
lfemur -9.19473 7.66608 -14.9584
ltibia 10.5166
lfoot -14.7858 24.0027
ltoes 2.76361
2447
root 0.567439 16.808 -5.05048 182.649 -70.1202 -171.302
lowerback -1.25636 -3.90186 -0.649366
upperback 1.59266 -5.23398 1.41697
thorax 2.52843 -2.64401 1.62819
lowerneck 6.77118 -17.4059 -8.70889
upperneck -11.6729 -23.078 21.4941
head -0.895739 -12.466 7.78481
rclavicle -3.97569e-016 -8.74653e-015
rhumerus -114.034 61.0452 -146.737
rradius 92.1469
rwrist 23.4582
rhand -64.5747 21.3942
rfingers 7.12502
rthumb -36.4952 -4.79916
lclavicle -3.97569e-016 -8.74653e-015
lhumerus -89.0071 -38.4379 118.437
lradius 94.124
lwrist -6.98545
lhand -45.8328 -32.0496
lfingers 7.12502
lthumb -18.5849 -2.91739
rfemur -27.0139 8.43525 16.3143
rtibia 29.3569
rfoot -14.074 -10.1877
rtoes 4.02448
lfemur -9.02932 7.72594 -15.0145
ltibia 10.4943
lfoot -15.1187 24.3977
ltoes 3.18442
